# xmcd
#
# Track frame offsets:
#	150
#	20384
#	36123
#	58758
#	70021
#	99829
#	120987
#	135836
#	153140
#	171613
#	193626
#	212048
#	225900
#	246071
#
# Disc length: 3534 seconds
#
# Revision: 0
# Processed by: cddbd v1.5.2PL0 Copyright (c) Steve Scherf et al.
# Submitted via: EasyCDDAExtractor 10.0.2.1
#
DISCID=a90dcc0e
DTITLE=Marcus Malone - Let the sunshine in
DYEAR=2011
DGENRE=Blues
TTITLE0=Let the sunshine in
TTITLE1=If i had another chance
TTITLE2=Back to paradise
TTITLE3=All that love
TTITLE4=would it matter
TTITLE5=Hearthbreak kid
TTITLE6=99 tears
TTITLE7=Last time
TTITLE8=Bad girls
TTITLE9=She's my girl
TTITLE10=I was a fool
TTITLE11=Make that difference
TTITLE12=Let the sunshine in
TTITLE13=To love somebody
EXTD=
EXTT0=
EXTT1=
EXTT2=
EXTT3=
EXTT4=
EXTT5=
EXTT6=
EXTT7=
EXTT8=
EXTT9=
EXTT10=
EXTT11=
EXTT12=
EXTT13=
PLAYORDER=
